<svg width="2246" height="588" viewBox="0 0 2246 588" fill="none" xmlns="http://www.w3.org/2000/svg">
<path d="M69.6 276.6H170.7V314.4H69.6V276.6ZM73.2 363H187.5V402H24.9V192H183.6V231H73.2V363ZM226.17 402V192H317.07C335.87 192 352.07 195.1 365.67 201.3C379.27 207.3 389.77 216 397.17 227.4C404.57 238.8 408.27 252.4 408.27 268.2C408.27 283.8 404.57 297.3 397.17 308.7C389.77 320.1 379.27 328.9 365.67 335.1C352.07 341.1 335.87 344.1 317.07 344.1H253.17L274.77 322.2V402H226.17ZM274.77 327.6L253.17 304.5H314.37C329.37 304.5 340.57 301.3 347.97 294.9C355.37 288.5 359.07 279.6 359.07 268.2C359.07 256.6 355.37 247.6 347.97 241.2C340.57 234.8 329.37 231.6 314.37 231.6H253.17L274.77 208.5V327.6ZM442.966 402V192H491.566V402H442.966ZM541.404 402V192H636.804C659.604 192 679.704 196.4 697.104 205.2C714.504 213.8 728.104 225.9 737.904 241.5C747.704 257.1 752.604 275.6 752.604 297C752.604 318.2 747.704 336.7 737.904 352.5C728.104 368.1 714.504 380.3 697.104 389.1C679.704 397.7 659.604 402 636.804 402H541.404ZM590.004 362.1H634.404C648.404 362.1 660.504 359.5 670.704 354.3C681.104 348.9 689.104 341.3 694.704 331.5C700.504 321.7 703.404 310.2 703.404 297C703.404 283.6 700.504 272.1 694.704 262.5C689.104 252.7 681.104 245.2 670.704 240C660.504 234.6 648.404 231.9 634.404 231.9H590.004V362.1ZM833.955 276.6H935.055V314.4H833.955V276.6ZM837.555 363H951.855V402H789.255V192H947.955V231H837.555V363ZM990.525 402V192H1030.73L1120.13 340.2H1098.83L1186.73 192H1226.63L1227.23 402H1181.63L1181.33 261.9H1189.73L1119.53 379.8H1097.63L1025.93 261.9H1036.13V402H990.525ZM1277.05 402V192H1325.65V402H1277.05ZM1351.49 402L1441.79 277.5V312.9L1355.39 192H1410.59L1470.29 276.3L1447.19 276.6L1505.99 192H1558.79L1472.99 310.8V276L1563.89 402H1507.79L1445.99 312.9H1468.19L1407.29 402H1351.49Z" fill="#FAE9E9"/>
<path d="M1661.82 289.729C1663.84 132.731 1790.73 5.83921 1947.73 3.82229V289.729H1661.82ZM1955.33 289.729V3.82229C2112.32 5.83923 2239.22 132.731 2241.23 289.729H1955.33ZM1661.82 297.325H1947.73V583.232C1790.73 581.216 1663.84 454.324 1661.82 297.325ZM1955.33 583.232V297.325H2241.23C2239.22 454.324 2112.32 581.216 1955.33 583.232Z" stroke="#D7DED8" stroke-width="7.59581"/>
<circle cx="1951.52" cy="293.525" r="59.5119" stroke="#D7DED8" stroke-width="7.59581"/>
<circle cx="1951.54" cy="293.534" r="117.066" stroke="#D7DED8" stroke-width="7.59581"/>
<circle cx="1951.52" cy="293.524" r="174.621" stroke="#D7DED8" stroke-width="7.59581"/>
<circle cx="1951.53" cy="293.532" r="232.175" stroke="#D7DED8" stroke-width="7.59581"/>
<path d="M2239.36 293.527C2239.36 452.492 2110.49 581.358 1951.53 581.358C1792.56 581.358 1663.7 452.492 1663.7 293.527C1663.7 134.563 1792.56 5.69686 1951.53 5.69686C2110.49 5.69686 2239.36 134.563 2239.36 293.527Z" stroke="#D7DED8" stroke-width="11.3937"/>
</svg>
