<svg width="3033" height="861" viewBox="0 0 3033 861" fill="none" xmlns="http://www.w3.org/2000/svg">
<path d="M92.8 418.806H227.6V469.206H92.8V418.806ZM97.6 534.006H250V586.006H33.2V306.006H244.8V358.006H97.6V534.006ZM301.559 586.006V306.006H422.759C447.826 306.006 469.426 310.139 487.559 318.406C505.693 326.406 519.693 338.006 529.559 353.206C539.426 368.406 544.359 386.539 544.359 407.606C544.359 428.406 539.426 446.406 529.559 461.606C519.693 476.806 505.693 488.539 487.559 496.806C469.426 504.806 447.826 508.806 422.759 508.806H337.559L366.359 479.606V586.006H301.559ZM366.359 486.806L337.559 456.006H419.159C439.159 456.006 454.093 451.739 463.959 443.206C473.826 434.673 478.759 422.806 478.759 407.606C478.759 392.139 473.826 380.139 463.959 371.606C454.093 363.073 439.159 358.806 419.159 358.806H337.559L366.359 328.006V486.806ZM590.622 586.006V306.006H655.422V586.006H590.622ZM721.872 586.006V306.006H849.072C879.472 306.006 906.272 311.873 929.472 323.606C952.672 335.073 970.805 351.206 983.872 372.006C996.939 392.806 1003.47 417.473 1003.47 446.006C1003.47 474.273 996.939 498.939 983.872 520.006C970.805 540.806 952.672 557.073 929.472 568.806C906.272 580.273 879.472 586.006 849.072 586.006H721.872ZM786.672 532.806H845.872C864.539 532.806 880.672 529.339 894.272 522.406C908.139 515.206 918.805 505.073 926.272 492.006C934.005 478.939 937.872 463.606 937.872 446.006C937.872 428.139 934.005 412.806 926.272 400.006C918.805 386.939 908.139 376.939 894.272 370.006C880.672 362.806 864.539 359.206 845.872 359.206H786.672V532.806ZM1111.94 418.806H1246.74V469.206H1111.94V418.806ZM1116.74 534.006H1269.14V586.006H1052.34V306.006H1263.94V358.006H1116.74V534.006ZM1320.7 586.006V306.006H1374.3L1493.5 503.606H1465.1L1582.3 306.006H1635.5L1636.3 586.006H1575.5L1575.1 399.206H1586.3L1492.7 556.406H1463.5L1367.9 399.206H1381.5V586.006H1320.7ZM1702.73 586.006V306.006H1767.53V586.006H1702.73ZM1801.98 586.006L1922.38 420.006V467.206L1807.18 306.006H1880.78L1960.38 418.406L1929.58 418.806L2007.98 306.006H2078.38L1963.98 464.406V418.006L2085.18 586.006H2010.38L1927.98 467.206H1957.58L1876.38 586.006H1801.98Z" fill="#FAE9E9"/>
<path d="M2175.81 426.22C2177.84 193.838 2365.84 5.84281 2598.22 3.81448V426.22H2175.81ZM2605.82 426.22V3.81448C2838.2 5.8428 3026.19 193.838 3028.22 426.22H2605.82ZM2175.81 433.815H2598.22V856.221C2365.84 854.192 2177.84 666.197 2175.81 433.815ZM2605.82 856.221V433.815H3028.22C3026.19 666.197 2838.2 854.192 2605.82 856.221Z" stroke="#D7DED8" stroke-width="7.59581"/>
<circle cx="2602.01" cy="430.016" r="88.951" stroke="#D7DED8" stroke-width="7.59581"/>
<circle cx="2602.03" cy="430.029" r="173.268" stroke="#D7DED8" stroke-width="7.59581"/>
<circle cx="2602.01" cy="430.016" r="257.585" stroke="#D7DED8" stroke-width="7.59581"/>
<circle cx="2602.03" cy="430.023" r="341.902" stroke="#D7DED8" stroke-width="7.59581"/>
<path d="M3026.34 430.018C3026.34 664.363 2836.36 854.338 2602.02 854.338C2367.67 854.338 2177.7 664.363 2177.7 430.018C2177.7 195.672 2367.67 5.69686 2602.02 5.69686C2836.36 5.69686 3026.34 195.672 3026.34 430.018Z" stroke="#D7DED8" stroke-width="11.3937"/>
</svg>
