<svg width="588" height="588" viewBox="0 0 588 588" fill="none" xmlns="http://www.w3.org/2000/svg">
<path d="M581.358 293.527C581.358 452.492 452.492 581.358 293.527 581.358C134.563 581.358 5.69686 452.492 5.69686 293.527C5.69686 134.563 134.563 5.69686 293.527 5.69686C452.492 5.69686 581.358 134.563 581.358 293.527Z" stroke="#D7DED8" stroke-width="11.3937"/>
<path d="M98.1941 98.0898C48.195 148.084 17.2695 217.153 17.2695 293.445H293.531L98.1941 98.0898Z" fill="url(#paint0_linear_2761_24)"/>
<path d="M310.8 293.531C310.8 303.067 303.069 310.797 293.534 310.797C288.775 310.797 281.343 305.758 281.343 305.758C281.343 305.758 129.138 140.404 100.726 106.403C97.3757 102.394 97.5191 98.0964 97.8488 97.7668C98.1793 97.4362 102.452 97.2711 106.482 100.643L305.705 281.284C305.705 281.284 310.8 288.743 310.8 293.531Z" fill="#D7DED8"/>
<defs>
<linearGradient id="paint0_linear_2761_24" x1="195.688" y1="195.601" x2="155.4" y2="293.443" gradientUnits="userSpaceOnUse">
<stop stop-color="#730909"/>
<stop offset="1" stop-color="#730909" stop-opacity="0"/>
</linearGradient>
</defs>
</svg>
